<svg xmlns="http://www.w3.org/2000/svg" viewBox="0 0 500 500" width="100%" height="100%">
  <defs>
    <radialGradient id="bbody" cx="38%" cy="32%" r="68%">
      <stop offset="0%" stop-color="#ffffff"></stop>
      <stop offset="22%" stop-color="#f6f1e3"></stop>
      <stop offset="55%" stop-color="#cdc6b3"></stop>
      <stop offset="82%" stop-color="#5a5346"></stop>
      <stop offset="100%" stop-color="#16140e"></stop>
    </radialGradient>
    <radialGradient id="bspec" cx="32%" cy="22%" r="22%">
      <stop offset="0%" stop-color="rgba(255,255,255,0.95)"></stop>
      <stop offset="60%" stop-color="rgba(255,255,255,0.25)"></stop>
      <stop offset="100%" stop-color="rgba(255,255,255,0)"></stop>
    </radialGradient>
    <radialGradient id="brim" cx="50%" cy="55%" r="50%">
      <stop offset="78%" stop-color="rgba(0,0,0,0)"></stop>
      <stop offset="100%" stop-color="rgba(0,0,0,0.45)"></stop>
    </radialGradient>
    <radialGradient id="bbounce" cx="70%" cy="80%" r="40%">
      <stop offset="0%" stop-color="rgba(255,140,40,0.35)"></stop>
      <stop offset="100%" stop-color="rgba(255,140,40,0)"></stop>
    </radialGradient>
    <radialGradient id="bglow" cx="50%" cy="50%" r="60%">
      <stop offset="60%" stop-color="rgba(244,63,94,0)"></stop>
      <stop offset="100%" stop-color="rgba(244,63,94,0.4)"></stop>
    </radialGradient>
    <clipPath id="bclip"><circle cx="250" cy="250" r="240"></circle></clipPath>
  </defs>
  
  <circle cx="250" cy="250" r="248" fill="url(#bglow)" opacity="0.6"></circle>
  
  <circle cx="250" cy="250" r="240" fill="url(#bbody)"></circle>
  
  <circle cx="250" cy="250" r="240" fill="url(#bbounce)"></circle>
  
  <g clip-path="url(#bclip)"><ellipse cx="10.1" cy="247.7" rx="0.49" ry="1.95" transform="rotate(-179.5 10.1 247.7)" fill="rgba(0,0,0,0.40)"></ellipse><ellipse cx="10.1" cy="247.8" rx="0.27" ry="1.07" transform="rotate(-179.5 10.1 247.7)" fill="rgba(255,255,255,0.30)"></ellipse><ellipse cx="392.1" cy="56.6" rx="0.50" ry="1.99" transform="rotate(-53.7 392.1 56.6)" fill="rgba(0,0,0,0.34)"></ellipse><ellipse cx="392.1" cy="56.7" rx="0.27" ry="1.10" transform="rotate(-53.7 392.1 56.6)" fill="rgba(255,255,255,0.26)"></ellipse><ellipse cx="223.8" cy="11.5" rx="0.51" ry="2.03" transform="rotate(-96.3 223.8 11.5)" fill="rgba(0,0,0,0.51)"></ellipse><ellipse cx="223.8" cy="11.5" rx="0.28" ry="1.12" transform="rotate(-96.3 223.8 11.5)" fill="rgba(255,255,255,0.37)"></ellipse><ellipse cx="431.1" cy="407.2" rx="0.61" ry="2.45" transform="rotate(41.0 431.1 407.2)" fill="rgba(0,0,0,0.22)"></ellipse><ellipse cx="431.1" cy="407.3" rx="0.34" ry="1.35" transform="rotate(41.0 431.1 407.2)" fill="rgba(255,255,255,0.18)"></ellipse><ellipse cx="52.7" cy="113.8" rx="0.64" ry="2.58" transform="rotate(-145.4 52.7 113.8)" fill="rgba(0,0,0,0.53)"></ellipse><ellipse cx="52.7" cy="113.9" rx="0.35" ry="1.42" transform="rotate(-145.4 52.7 113.8)" fill="rgba(255,255,255,0.38)"></ellipse><ellipse cx="332.4" cy="25.0" rx="0.73" ry="2.92" transform="rotate(-69.9 332.4 25.0)" fill="rgba(0,0,0,0.43)"></ellipse><ellipse cx="332.4" cy="25.1" rx="0.40" ry="1.61" transform="rotate(-69.9 332.4 25.0)" fill="rgba(255,255,255,0.31)"></ellipse><ellipse cx="368.0" cy="458.4" rx="0.76" ry="3.04" transform="rotate(60.5 368.0 458.4)" fill="rgba(0,0,0,0.22)"></ellipse><ellipse cx="368.0" cy="458.5" rx="0.42" ry="1.67" transform="rotate(60.5 368.0 458.4)" fill="rgba(255,255,255,0.18)"></ellipse><ellipse cx="481.9" cy="190.6" rx="0.77" ry="3.08" transform="rotate(-14.4 481.9 190.6)" fill="rgba(0,0,0,0.22)"></ellipse><ellipse cx="482.0" cy="190.6" rx="0.42" ry="1.69" transform="rotate(-14.4 481.9 190.6)" fill="rgba(255,255,255,0.18)"></ellipse><ellipse cx="24.5" cy="330.5" rx="0.77" ry="3.08" transform="rotate(160.4 24.5 330.5)" fill="rgba(0,0,0,0.31)"></ellipse><ellipse cx="24.5" cy="330.6" rx="0.42" ry="1.70" transform="rotate(160.4 24.5 330.5)" fill="rgba(255,255,255,0.24)"></ellipse><ellipse cx="230.2" cy="488.5" rx="0.80" ry="3.20" transform="rotate(94.7 230.2 488.5)" fill="rgba(0,0,0,0.22)"></ellipse><ellipse cx="230.3" cy="488.6" rx="0.44" ry="1.76" transform="rotate(94.7 230.2 488.5)" fill="rgba(255,255,255,0.18)"></ellipse><ellipse cx="282.8" cy="13.0" rx="0.81" ry="3.26" transform="rotate(-82.1 282.8 13.0)" fill="rgba(0,0,0,0.48)"></ellipse><ellipse cx="282.9" cy="13.1" rx="0.45" ry="1.79" transform="rotate(-82.1 282.8 13.0)" fill="rgba(255,255,255,0.35)"></ellipse><ellipse cx="101.4" cy="62.7" rx="0.84" ry="3.35" transform="rotate(-128.4 101.4 62.7)" fill="rgba(0,0,0,0.56)"></ellipse><ellipse cx="101.4" cy="62.7" rx="0.46" ry="1.84" transform="rotate(-128.4 101.4 62.7)" fill="rgba(255,255,255,0.40)"></ellipse><ellipse cx="75.4" cy="413.3" rx="0.86" ry="3.44" transform="rotate(136.9 75.4 413.3)" fill="rgba(0,0,0,0.22)"></ellipse><ellipse cx="75.5" cy="413.3" rx="0.47" ry="1.89" transform="rotate(136.9 75.4 413.3)" fill="rgba(255,255,255,0.18)"></ellipse><ellipse cx="477.0" cy="324.5" rx="0.88" ry="3.54" transform="rotate(18.2 477.0 324.5)" fill="rgba(0,0,0,0.22)"></ellipse><ellipse cx="477.0" cy="324.6" rx="0.49" ry="1.95" transform="rotate(18.2 477.0 324.5)" fill="rgba(255,255,255,0.18)"></ellipse><ellipse cx="441.9" cy="107.8" rx="0.89" ry="3.55" transform="rotate(-36.5 441.9 107.8)" fill="rgba(0,0,0,0.26)"></ellipse><ellipse cx="442.0" cy="107.9" rx="0.49" ry="1.95" transform="rotate(-36.5 441.9 107.8)" fill="rgba(255,255,255,0.21)"></ellipse><ellipse cx="17.3" cy="196.6" rx="0.90" ry="3.61" transform="rotate(-167.1 17.3 196.6)" fill="rgba(0,0,0,0.47)"></ellipse><ellipse cx="17.4" cy="196.7" rx="0.50" ry="1.98" transform="rotate(-167.1 17.3 196.6)" fill="rgba(255,255,255,0.34)"></ellipse><ellipse cx="320.5" cy="478.0" rx="0.92" ry="3.69" transform="rotate(72.8 320.5 478.0)" fill="rgba(0,0,0,0.22)"></ellipse><ellipse cx="320.6" cy="478.1" rx="0.51" ry="2.03" transform="rotate(72.8 320.5 478.0)" fill="rgba(255,255,255,0.18)"></ellipse><ellipse cx="176.5" cy="476.5" rx="0.98" ry="3.93" transform="rotate(108.0 176.5 476.5)" fill="rgba(0,0,0,0.22)"></ellipse><ellipse cx="176.6" cy="476.6" rx="0.54" ry="2.16" transform="rotate(108.0 176.5 476.5)" fill="rgba(255,255,255,0.18)"></ellipse><ellipse cx="114.5" cy="444.9" rx="1.05" ry="4.20" transform="rotate(124.8 114.5 444.9)" fill="rgba(0,0,0,0.22)"></ellipse><ellipse cx="114.6" cy="445.0" rx="0.58" ry="2.31" transform="rotate(124.8 114.5 444.9)" fill="rgba(255,255,255,0.18)"></ellipse><ellipse cx="487.0" cy="241.7" rx="1.06" ry="4.24" transform="rotate(-2.0 487.0 241.7)" fill="rgba(0,0,0,0.22)"></ellipse><ellipse cx="487.1" cy="241.9" rx="0.58" ry="2.33" transform="rotate(-2.0 487.0 241.7)" fill="rgba(255,255,255,0.18)"></ellipse><ellipse cx="278.2" cy="485.5" rx="1.06" ry="4.25" transform="rotate(83.2 278.2 485.5)" fill="rgba(0,0,0,0.22)"></ellipse><ellipse cx="278.3" cy="485.6" rx="0.58" ry="2.34" transform="rotate(83.2 278.2 485.5)" fill="rgba(255,255,255,0.18)"></ellipse><ellipse cx="14.7" cy="279.3" rx="1.06" ry="4.26" transform="rotate(172.9 14.7 279.3)" fill="rgba(0,0,0,0.39)"></ellipse><ellipse cx="14.8" cy="279.5" rx="0.59" ry="2.34" transform="rotate(172.9 14.7 279.3)" fill="rgba(255,255,255,0.29)"></ellipse><ellipse cx="451.0" cy="375.6" rx="1.07" ry="4.29" transform="rotate(32.0 451.0 375.6)" fill="rgba(0,0,0,0.22)"></ellipse><ellipse cx="451.1" cy="375.8" rx="0.59" ry="2.36" transform="rotate(32.0 451.0 375.6)" fill="rgba(255,255,255,0.18)"></ellipse><ellipse cx="37.8" cy="145.4" rx="1.10" ry="4.40" transform="rotate(-153.8 37.8 145.4)" fill="rgba(0,0,0,0.53)"></ellipse><ellipse cx="37.9" cy="145.6" rx="0.61" ry="2.42" transform="rotate(-153.8 37.8 145.4)" fill="rgba(255,255,255,0.38)"></ellipse><ellipse cx="410.1" cy="76.2" rx="1.12" ry="4.47" transform="rotate(-47.3 410.1 76.2)" fill="rgba(0,0,0,0.34)"></ellipse><ellipse cx="410.3" cy="76.4" rx="0.62" ry="2.46" transform="rotate(-47.3 410.1 76.2)" fill="rgba(255,255,255,0.26)"></ellipse><ellipse cx="135.8" cy="43.1" rx="1.12" ry="4.48" transform="rotate(-118.9 135.8 43.1)" fill="rgba(0,0,0,0.57)"></ellipse><ellipse cx="136.0" cy="43.3" rx="0.62" ry="2.46" transform="rotate(-118.9 135.8 43.1)" fill="rgba(255,255,255,0.41)"></ellipse><ellipse cx="183.0" cy="23.5" rx="1.13" ry="4.52" transform="rotate(-106.5 183.0 23.5)" fill="rgba(0,0,0,0.56)"></ellipse><ellipse cx="183.2" cy="23.7" rx="0.62" ry="2.48" transform="rotate(-106.5 183.0 23.5)" fill="rgba(255,255,255,0.40)"></ellipse><ellipse cx="406.5" cy="426.8" rx="1.13" ry="4.52" transform="rotate(48.5 406.5 426.8)" fill="rgba(0,0,0,0.22)"></ellipse><ellipse cx="406.7" cy="427.0" rx="0.62" ry="2.49" transform="rotate(48.5 406.5 426.8)" fill="rgba(255,255,255,0.18)"></ellipse><ellipse cx="42.3" cy="362.1" rx="1.14" ry="4.55" transform="rotate(151.6 42.3 362.1)" fill="rgba(0,0,0,0.28)"></ellipse><ellipse cx="42.4" cy="362.3" rx="0.63" ry="2.50" transform="rotate(151.6 42.3 362.1)" fill="rgba(255,255,255,0.22)"></ellipse><ellipse cx="467.4" cy="159.0" rx="1.15" ry="4.61" transform="rotate(-22.7 467.4 159.0)" fill="rgba(0,0,0,0.22)"></ellipse><ellipse cx="467.6" cy="159.2" rx="0.63" ry="2.54" transform="rotate(-22.7 467.4 159.0)" fill="rgba(255,255,255,0.18)"></ellipse><ellipse cx="364.9" cy="44.6" rx="1.17" ry="4.69" transform="rotate(-60.8 364.9 44.6)" fill="rgba(0,0,0,0.41)"></ellipse><ellipse cx="365.0" cy="44.8" rx="0.65" ry="2.58" transform="rotate(-60.8 364.9 44.6)" fill="rgba(255,255,255,0.30)"></ellipse><ellipse cx="227.5" cy="16.0" rx="1.19" ry="4.74" transform="rotate(-95.5 227.5 16.0)" fill="rgba(0,0,0,0.54)"></ellipse><ellipse cx="227.6" cy="16.3" rx="0.65" ry="2.61" transform="rotate(-95.5 227.5 16.0)" fill="rgba(255,255,255,0.39)"></ellipse><ellipse cx="74.0" cy="94.3" rx="1.19" ry="4.75" transform="rotate(-138.5 74.0 94.3)" fill="rgba(0,0,0,0.57)"></ellipse><ellipse cx="74.1" cy="94.5" rx="0.65" ry="2.61" transform="rotate(-138.5 74.0 94.3)" fill="rgba(255,255,255,0.40)"></ellipse><ellipse cx="479.6" cy="292.9" rx="1.25" ry="5.00" transform="rotate(10.6 479.6 292.9)" fill="rgba(0,0,0,0.22)"></ellipse><ellipse cx="479.8" cy="293.2" rx="0.69" ry="2.75" transform="rotate(10.6 479.6 292.9)" fill="rgba(255,255,255,0.18)"></ellipse><ellipse cx="17.7" cy="228.2" rx="1.26" ry="5.04" transform="rotate(-174.6 17.7 228.2)" fill="rgba(0,0,0,0.46)"></ellipse><ellipse cx="17.9" cy="228.5" rx="0.69" ry="2.77" transform="rotate(-174.6 17.7 228.2)" fill="rgba(255,255,255,0.34)"></ellipse><ellipse cx="282.6" cy="20.5" rx="1.36" ry="5.25" transform="rotate(-81.9 282.6 20.5)" fill="rgba(0,0,0,0.51)"></ellipse><ellipse cx="282.8" cy="20.9" rx="0.75" ry="2.89" transform="rotate(-81.9 282.6 20.5)" fill="rgba(255,255,255,0.37)"></ellipse><ellipse cx="233.1" cy="481.0" rx="1.38" ry="5.27" transform="rotate(94.2 233.1 481.0)" fill="rgba(0,0,0,0.22)"></ellipse><ellipse cx="233.3" cy="481.3" rx="0.76" ry="2.90" transform="rotate(94.2 233.1 481.0)" fill="rgba(255,255,255,0.18)"></ellipse><ellipse cx="68.8" cy="393.7" rx="1.42" ry="5.31" transform="rotate(141.6 68.8 393.7)" fill="rgba(0,0,0,0.25)"></ellipse><ellipse cx="69.0" cy="394.0" rx="0.78" ry="2.92" transform="rotate(141.6 68.8 393.7)" fill="rgba(255,255,255,0.20)"></ellipse><ellipse cx="372.1" cy="446.4" rx="1.42" ry="5.31" transform="rotate(58.1 372.1 446.4)" fill="rgba(0,0,0,0.22)"></ellipse><ellipse cx="372.4" cy="446.7" rx="0.78" ry="2.92" transform="rotate(58.1 372.1 446.4)" fill="rgba(255,255,255,0.18)"></ellipse><ellipse cx="27.5" cy="310.9" rx="1.48" ry="5.38" transform="rotate(164.7 27.5 310.9)" fill="rgba(0,0,0,0.37)"></ellipse><ellipse cx="27.7" cy="311.3" rx="0.82" ry="2.96" transform="rotate(164.7 27.5 310.9)" fill="rgba(255,255,255,0.28)"></ellipse><ellipse cx="477.0" cy="210.1" rx="1.51" ry="5.40" transform="rotate(-10.0 477.0 210.1)" fill="rgba(0,0,0,0.22)"></ellipse><ellipse cx="477.2" cy="210.5" rx="0.83" ry="2.97" transform="rotate(-10.0 477.0 210.1)" fill="rgba(255,255,255,0.18)"></ellipse><ellipse cx="330.1" cy="465.9" rx="1.52" ry="5.42" transform="rotate(69.6 330.1 465.9)" fill="rgba(0,0,0,0.22)"></ellipse><ellipse cx="330.4" cy="466.3" rx="0.84" ry="2.98" transform="rotate(69.6 330.1 465.9)" fill="rgba(255,255,255,0.18)"></ellipse><ellipse cx="444.6" cy="127.4" rx="1.55" ry="5.45" transform="rotate(-32.2 444.6 127.4)" fill="rgba(0,0,0,0.28)"></ellipse><ellipse cx="444.9" cy="127.7" rx="0.85" ry="3.00" transform="rotate(-32.2 444.6 127.4)" fill="rgba(255,255,255,0.22)"></ellipse><ellipse cx="325.1" cy="32.6" rx="1.55" ry="5.45" transform="rotate(-70.9 325.1 32.6)" fill="rgba(0,0,0,0.47)"></ellipse><ellipse cx="325.3" cy="33.0" rx="0.85" ry="3.00" transform="rotate(-70.9 325.1 32.6)" fill="rgba(255,255,255,0.34)"></ellipse><ellipse cx="459.7" cy="344.0" rx="1.58" ry="5.47" transform="rotate(24.2 459.7 344.0)" fill="rgba(0,0,0,0.22)"></ellipse><ellipse cx="459.9" cy="344.4" rx="0.87" ry="3.01" transform="rotate(24.2 459.7 344.0)" fill="rgba(255,255,255,0.18)"></ellipse><ellipse cx="150.2" cy="456.9" rx="1.59" ry="5.48" transform="rotate(115.8 150.2 456.9)" fill="rgba(0,0,0,0.22)"></ellipse><ellipse cx="150.4" cy="457.3" rx="0.87" ry="3.01" transform="rotate(115.8 150.2 456.9)" fill="rgba(255,255,255,0.18)"></ellipse><ellipse cx="33.0" cy="177.0" rx="1.67" ry="5.56" transform="rotate(-161.4 33.0 177.0)" fill="rgba(0,0,0,0.52)"></ellipse><ellipse cx="33.3" cy="177.4" rx="0.92" ry="3.06" transform="rotate(-161.4 33.0 177.0)" fill="rgba(255,255,255,0.38)"></ellipse><ellipse cx="425.9" cy="395.2" rx="1.75" ry="5.64" transform="rotate(39.5 425.9 395.2)" fill="rgba(0,0,0,0.22)"></ellipse><ellipse cx="426.2" cy="395.6" rx="0.96" ry="3.10" transform="rotate(39.5 425.9 395.2)" fill="rgba(255,255,255,0.18)"></ellipse><ellipse cx="104.2" cy="425.3" rx="1.76" ry="5.65" transform="rotate(129.8 104.2 425.3)" fill="rgba(0,0,0,0.22)"></ellipse><ellipse cx="104.4" cy="425.7" rx="0.97" ry="3.11" transform="rotate(129.8 104.2 425.3)" fill="rgba(255,255,255,0.18)"></ellipse><ellipse cx="105.1" cy="74.7" rx="1.82" ry="5.70" transform="rotate(-129.6 105.1 74.7)" fill="rgba(0,0,0,0.59)"></ellipse><ellipse cx="105.4" cy="75.1" rx="1.00" ry="3.13" transform="rotate(-129.6 105.1 74.7)" fill="rgba(255,255,255,0.42)"></ellipse><ellipse cx="193.5" cy="468.9" rx="1.95" ry="5.81" transform="rotate(104.5 193.5 468.9)" fill="rgba(0,0,0,0.22)"></ellipse><ellipse cx="193.8" cy="469.4" rx="1.07" ry="3.20" transform="rotate(104.5 193.5 468.9)" fill="rgba(255,255,255,0.18)"></ellipse><ellipse cx="61.1" cy="125.9" rx="1.96" ry="5.82" transform="rotate(-146.7 61.1 125.9)" fill="rgba(0,0,0,0.57)"></ellipse><ellipse cx="61.4" cy="126.3" rx="1.08" ry="3.20" transform="rotate(-146.7 61.1 125.9)" fill="rgba(255,255,255,0.41)"></ellipse><ellipse cx="276.2" cy="473.4" rx="2.05" ry="5.90" transform="rotate(83.3 276.2 473.4)" fill="rgba(0,0,0,0.22)"></ellipse><ellipse cx="276.5" cy="474.0" rx="1.13" ry="3.25" transform="rotate(83.3 276.2 473.4)" fill="rgba(255,255,255,0.18)"></ellipse><ellipse cx="413.8" cy="95.8" rx="2.06" ry="5.90" transform="rotate(-43.3 413.8 95.8)" fill="rgba(0,0,0,0.35)"></ellipse><ellipse cx="414.1" cy="96.3" rx="1.13" ry="3.25" transform="rotate(-43.3 413.8 95.8)" fill="rgba(255,255,255,0.26)"></ellipse><ellipse cx="184.6" cy="35.6" rx="2.13" ry="5.96" transform="rotate(-107.0 184.6 35.6)" fill="rgba(0,0,0,0.58)"></ellipse><ellipse cx="184.9" cy="36.1" rx="1.17" ry="3.28" transform="rotate(-107.0 184.6 35.6)" fill="rgba(255,255,255,0.42)"></ellipse><ellipse cx="374.9" cy="64.2" rx="2.16" ry="5.98" transform="rotate(-56.1 374.9 64.2)" fill="rgba(0,0,0,0.42)"></ellipse><ellipse cx="375.2" cy="64.7" rx="1.19" ry="3.29" transform="rotate(-56.1 374.9 64.2)" fill="rgba(255,255,255,0.31)"></ellipse><ellipse cx="473.5" cy="261.3" rx="2.16" ry="5.99" transform="rotate(2.9 473.5 261.3)" fill="rgba(0,0,0,0.22)"></ellipse><ellipse cx="473.9" cy="261.8" rx="1.19" ry="3.29" transform="rotate(2.9 473.5 261.3)" fill="rgba(255,255,255,0.18)"></ellipse><ellipse cx="26.6" cy="259.8" rx="2.18" ry="6.00" transform="rotate(177.5 26.6 259.8)" fill="rgba(0,0,0,0.45)"></ellipse><ellipse cx="26.9" cy="260.3" rx="1.20" ry="3.30" transform="rotate(177.5 26.6 259.8)" fill="rgba(255,255,255,0.33)"></ellipse><ellipse cx="143.1" cy="55.1" rx="2.30" ry="6.09" transform="rotate(-118.8 143.1 55.1)" fill="rgba(0,0,0,0.60)"></ellipse><ellipse cx="143.4" cy="55.7" rx="1.26" ry="3.35" transform="rotate(-118.8 143.1 55.1)" fill="rgba(255,255,255,0.42)"></ellipse><ellipse cx="48.1" cy="342.5" rx="2.31" ry="6.10" transform="rotate(155.4 48.1 342.5)" fill="rgba(0,0,0,0.34)"></ellipse><ellipse cx="48.4" cy="343.1" rx="1.27" ry="3.36" transform="rotate(155.4 48.1 342.5)" fill="rgba(255,255,255,0.26)"></ellipse><ellipse cx="242.2" cy="28.1" rx="2.32" ry="6.11" transform="rotate(-92.0 242.2 28.1)" fill="rgba(0,0,0,0.56)"></ellipse><ellipse cx="242.6" cy="28.6" rx="1.27" ry="3.36" transform="rotate(-92.0 242.2 28.1)" fill="rgba(255,255,255,0.40)"></ellipse><ellipse cx="459.1" cy="178.5" rx="2.41" ry="6.17" transform="rotate(-18.9 459.1 178.5)" fill="rgba(0,0,0,0.23)"></ellipse><ellipse cx="459.5" cy="179.1" rx="1.32" ry="3.40" transform="rotate(-18.9 459.1 178.5)" fill="rgba(255,255,255,0.19)"></ellipse><ellipse cx="392.3" cy="414.8" rx="2.68" ry="6.37" transform="rotate(49.2 392.3 414.8)" fill="rgba(0,0,0,0.22)"></ellipse><ellipse cx="392.7" cy="415.4" rx="1.47" ry="3.50" transform="rotate(49.2 392.3 414.8)" fill="rgba(255,255,255,0.18)"></ellipse><ellipse cx="458.4" cy="312.4" rx="2.69" ry="6.37" transform="rotate(16.7 458.4 312.4)" fill="rgba(0,0,0,0.22)"></ellipse><ellipse cx="458.9" cy="313.1" rx="1.48" ry="3.51" transform="rotate(16.7 458.4 312.4)" fill="rgba(255,255,255,0.18)"></ellipse><ellipse cx="37.6" cy="208.6" rx="2.78" ry="6.44" transform="rotate(-169.0 37.6 208.6)" fill="rgba(0,0,0,0.51)"></ellipse><ellipse cx="38.0" cy="209.3" rx="1.53" ry="3.54" transform="rotate(-169.0 37.6 208.6)" fill="rgba(255,255,255,0.37)"></ellipse><ellipse cx="431.9" cy="363.6" rx="2.93" ry="6.53" transform="rotate(32.0 431.9 363.6)" fill="rgba(0,0,0,0.22)"></ellipse><ellipse cx="432.3" cy="364.3" rx="1.61" ry="3.59" transform="rotate(32.0 431.9 363.6)" fill="rgba(255,255,255,0.18)"></ellipse><ellipse cx="75.6" cy="374.1" rx="2.96" ry="6.55" transform="rotate(144.6 75.6 374.1)" fill="rgba(0,0,0,0.30)"></ellipse><ellipse cx="76.1" cy="374.9" rx="1.63" ry="3.60" transform="rotate(144.6 75.6 374.1)" fill="rgba(255,255,255,0.23)"></ellipse><ellipse cx="312.9" cy="453.9" rx="3.01" ry="6.58" transform="rotate(72.8 312.9 453.9)" fill="rgba(0,0,0,0.22)"></ellipse><ellipse cx="313.4" cy="454.6" rx="1.66" ry="3.62" transform="rotate(72.8 312.9 453.9)" fill="rgba(255,255,255,0.18)"></ellipse><ellipse cx="148.1" cy="437.3" rx="3.02" ry="6.59" transform="rotate(118.5 148.1 437.3)" fill="rgba(0,0,0,0.22)"></ellipse><ellipse cx="148.6" cy="438.1" rx="1.66" ry="3.62" transform="rotate(118.5 148.1 437.3)" fill="rgba(255,255,255,0.18)"></ellipse><ellipse cx="328.4" cy="52.1" rx="3.06" ry="6.61" transform="rotate(-68.4 328.4 52.1)" fill="rgba(0,0,0,0.48)"></ellipse><ellipse cx="328.9" cy="52.9" rx="1.68" ry="3.64" transform="rotate(-68.4 328.4 52.1)" fill="rgba(255,255,255,0.35)"></ellipse><ellipse cx="93.5" cy="106.3" rx="3.08" ry="6.63" transform="rotate(-137.4 93.5 106.3)" fill="rgba(0,0,0,0.59)"></ellipse><ellipse cx="94.0" cy="107.1" rx="1.70" ry="3.65" transform="rotate(-137.4 93.5 106.3)" fill="rgba(255,255,255,0.42)"></ellipse><ellipse cx="280.5" cy="40.1" rx="3.11" ry="6.64" transform="rotate(-81.7 280.5 40.1)" fill="rgba(0,0,0,0.53)"></ellipse><ellipse cx="281.0" cy="40.9" rx="1.71" ry="3.65" transform="rotate(-81.7 280.5 40.1)" fill="rgba(255,255,255,0.38)"></ellipse><ellipse cx="59.8" cy="157.5" rx="3.15" ry="6.67" transform="rotate(-154.1 59.8 157.5)" fill="rgba(0,0,0,0.56)"></ellipse><ellipse cx="60.3" cy="158.2" rx="1.73" ry="3.67" transform="rotate(-154.1 59.8 157.5)" fill="rgba(255,255,255,0.40)"></ellipse><ellipse cx="244.8" cy="461.4" rx="3.15" ry="6.67" transform="rotate(91.4 244.8 461.4)" fill="rgba(0,0,0,0.22)"></ellipse><ellipse cx="245.3" cy="462.2" rx="1.73" ry="3.67" transform="rotate(91.4 244.8 461.4)" fill="rgba(255,255,255,0.18)"></ellipse><ellipse cx="353.3" cy="434.3" rx="3.17" ry="6.68" transform="rotate(60.7 353.3 434.3)" fill="rgba(0,0,0,0.22)"></ellipse><ellipse cx="353.8" cy="435.1" rx="1.74" ry="3.67" transform="rotate(60.7 353.3 434.3)" fill="rgba(255,255,255,0.18)"></ellipse><ellipse cx="434.3" cy="146.9" rx="3.18" ry="6.68" transform="rotate(-29.2 434.3 146.9)" fill="rgba(0,0,0,0.30)"></ellipse><ellipse cx="434.8" cy="147.7" rx="1.75" ry="3.68" transform="rotate(-29.2 434.3 146.9)" fill="rgba(255,255,255,0.23)"></ellipse><ellipse cx="43.2" cy="291.4" rx="3.19" ry="6.69" transform="rotate(168.7 43.2 291.4)" fill="rgba(0,0,0,0.42)"></ellipse><ellipse cx="43.7" cy="292.2" rx="1.76" ry="3.68" transform="rotate(168.7 43.2 291.4)" fill="rgba(255,255,255,0.31)"></ellipse><ellipse cx="459.5" cy="229.7" rx="3.23" ry="6.71" transform="rotate(-5.5 459.5 229.7)" fill="rgba(0,0,0,0.22)"></ellipse><ellipse cx="460.0" cy="230.5" rx="1.78" ry="3.69" transform="rotate(-5.5 459.5 229.7)" fill="rgba(255,255,255,0.18)"></ellipse><ellipse cx="109.2" cy="405.7" rx="3.26" ry="6.74" transform="rotate(132.1 109.2 405.7)" fill="rgba(0,0,0,0.25)"></ellipse><ellipse cx="109.7" cy="406.5" rx="1.80" ry="3.70" transform="rotate(132.1 109.2 405.7)" fill="rgba(255,255,255,0.20)"></ellipse><ellipse cx="211.7" cy="47.6" rx="3.54" ry="6.89" transform="rotate(-100.7 211.7 47.6)" fill="rgba(0,0,0,0.58)"></ellipse><ellipse cx="212.2" cy="48.5" rx="1.95" ry="3.79" transform="rotate(-100.7 211.7 47.6)" fill="rgba(255,255,255,0.42)"></ellipse><ellipse cx="198.4" cy="449.4" rx="3.54" ry="6.89" transform="rotate(104.5 198.4 449.4)" fill="rgba(0,0,0,0.22)"></ellipse><ellipse cx="199.0" cy="450.2" rx="1.95" ry="3.79" transform="rotate(104.5 198.4 449.4)" fill="rgba(255,255,255,0.18)"></ellipse><ellipse cx="403.4" cy="115.3" rx="3.66" ry="6.96" transform="rotate(-41.3 403.4 115.3)" fill="rgba(0,0,0,0.37)"></ellipse><ellipse cx="404.0" cy="116.2" rx="2.01" ry="3.83" transform="rotate(-41.3 403.4 115.3)" fill="rgba(255,255,255,0.28)"></ellipse><ellipse cx="367.8" cy="83.7" rx="3.68" ry="6.97" transform="rotate(-54.7 367.8 83.7)" fill="rgba(0,0,0,0.43)"></ellipse><ellipse cx="368.4" cy="84.6" rx="2.03" ry="3.83" transform="rotate(-54.7 367.8 83.7)" fill="rgba(255,255,255,0.32)"></ellipse><ellipse cx="132.1" cy="86.7" rx="3.84" ry="7.05" transform="rotate(-125.8 132.1 86.7)" fill="rgba(0,0,0,0.60)"></ellipse><ellipse cx="132.7" cy="87.7" rx="2.11" ry="3.88" transform="rotate(-125.8 132.1 86.7)" fill="rgba(255,255,255,0.43)"></ellipse><ellipse cx="448.3" cy="280.8" rx="3.88" ry="7.08" transform="rotate(8.8 448.3 280.8)" fill="rgba(0,0,0,0.22)"></ellipse><ellipse cx="448.9" cy="281.8" rx="2.14" ry="3.89" transform="rotate(8.8 448.3 280.8)" fill="rgba(255,255,255,0.18)"></ellipse><ellipse cx="50.5" cy="240.2" rx="3.94" ry="7.11" transform="rotate(-177.2 50.5 240.2)" fill="rgba(0,0,0,0.49)"></ellipse><ellipse cx="51.1" cy="241.2" rx="2.17" ry="3.91" transform="rotate(-177.2 50.5 240.2)" fill="rgba(255,255,255,0.36)"></ellipse><ellipse cx="173.0" cy="67.2" rx="4.03" ry="7.15" transform="rotate(-112.8 173.0 67.2)" fill="rgba(0,0,0,0.60)"></ellipse><ellipse cx="173.6" cy="68.2" rx="2.21" ry="3.93" transform="rotate(-112.8 173.0 67.2)" fill="rgba(255,255,255,0.43)"></ellipse><ellipse cx="395.9" cy="383.2" rx="4.08" ry="7.18" transform="rotate(42.4 395.9 383.2)" fill="rgba(0,0,0,0.22)"></ellipse><ellipse cx="396.5" cy="384.2" rx="2.24" ry="3.95" transform="rotate(42.4 395.9 383.2)" fill="rgba(255,255,255,0.18)"></ellipse><ellipse cx="66.5" cy="323.0" rx="4.08" ry="7.18" transform="rotate(158.3 66.5 323.0)" fill="rgba(0,0,0,0.39)"></ellipse><ellipse cx="67.2" cy="324.0" rx="2.25" ry="3.95" transform="rotate(158.3 66.5 323.0)" fill="rgba(255,255,255,0.29)"></ellipse><ellipse cx="438.3" cy="198.1" rx="4.21" ry="7.24" transform="rotate(-15.4 438.3 198.1)" fill="rgba(0,0,0,0.27)"></ellipse><ellipse cx="439.0" cy="199.1" rx="2.31" ry="3.98" transform="rotate(-15.4 438.3 198.1)" fill="rgba(255,255,255,0.21)"></ellipse><ellipse cx="427.0" cy="332.0" rx="4.23" ry="7.25" transform="rotate(24.9 427.0 332.0)" fill="rgba(0,0,0,0.22)"></ellipse><ellipse cx="427.6" cy="333.0" rx="2.32" ry="3.99" transform="rotate(24.9 427.0 332.0)" fill="rgba(255,255,255,0.18)"></ellipse><ellipse cx="274.4" cy="441.8" rx="4.32" ry="7.30" transform="rotate(82.7 274.4 441.8)" fill="rgba(0,0,0,0.22)"></ellipse><ellipse cx="275.1" cy="442.9" rx="2.38" ry="4.01" transform="rotate(82.7 274.4 441.8)" fill="rgba(255,255,255,0.18)"></ellipse><ellipse cx="68.2" cy="189.1" rx="4.42" ry="7.34" transform="rotate(-161.5 68.2 189.1)" fill="rgba(0,0,0,0.55)"></ellipse><ellipse cx="68.9" cy="190.1" rx="2.43" ry="4.04" transform="rotate(-161.5 68.2 189.1)" fill="rgba(255,255,255,0.39)"></ellipse><ellipse cx="95.3" cy="137.9" rx="4.45" ry="7.36" transform="rotate(-144.1 95.3 137.9)" fill="rgba(0,0,0,0.59)"></ellipse><ellipse cx="96.0" cy="139.0" rx="2.45" ry="4.05" transform="rotate(-144.1 95.3 137.9)" fill="rgba(255,255,255,0.42)"></ellipse><ellipse cx="257.1" cy="59.7" rx="4.49" ry="7.38" transform="rotate(-87.9 257.1 59.7)" fill="rgba(0,0,0,0.56)"></ellipse><ellipse cx="257.8" cy="60.8" rx="2.47" ry="4.06" transform="rotate(-87.9 257.1 59.7)" fill="rgba(255,255,255,0.40)"></ellipse><ellipse cx="312.4" cy="71.7" rx="4.58" ry="7.42" transform="rotate(-70.7 312.4 71.7)" fill="rgba(0,0,0,0.51)"></ellipse><ellipse cx="313.1" cy="72.8" rx="2.52" ry="4.08" transform="rotate(-70.7 312.4 71.7)" fill="rgba(255,255,255,0.37)"></ellipse><ellipse cx="163.2" cy="417.8" rx="4.58" ry="7.42" transform="rotate(117.3 163.2 417.8)" fill="rgba(0,0,0,0.22)"></ellipse><ellipse cx="164.0" cy="418.9" rx="2.52" ry="4.08" transform="rotate(117.3 163.2 417.8)" fill="rgba(255,255,255,0.18)"></ellipse><ellipse cx="95.4" cy="354.6" rx="4.70" ry="7.47" transform="rotate(145.9 95.4 354.6)" fill="rgba(0,0,0,0.35)"></ellipse><ellipse cx="96.1" cy="355.7" rx="2.58" ry="4.11" transform="rotate(145.9 95.4 354.6)" fill="rgba(255,255,255,0.26)"></ellipse><ellipse cx="355.0" cy="402.7" rx="4.77" ry="7.51" transform="rotate(55.5 355.0 402.7)" fill="rgba(0,0,0,0.22)"></ellipse><ellipse cx="355.7" cy="403.9" rx="2.62" ry="4.13" transform="rotate(55.5 355.0 402.7)" fill="rgba(255,255,255,0.18)"></ellipse><ellipse cx="313.0" cy="422.3" rx="4.87" ry="7.55" transform="rotate(69.9 313.0 422.3)" fill="rgba(0,0,0,0.22)"></ellipse><ellipse cx="313.8" cy="423.5" rx="2.68" ry="4.15" transform="rotate(69.9 313.0 422.3)" fill="rgba(255,255,255,0.18)"></ellipse><ellipse cx="128.2" cy="386.2" rx="4.91" ry="7.57" transform="rotate(131.8 128.2 386.2)" fill="rgba(0,0,0,0.29)"></ellipse><ellipse cx="129.0" cy="387.4" rx="2.70" ry="4.16" transform="rotate(131.8 128.2 386.2)" fill="rgba(255,255,255,0.23)"></ellipse><ellipse cx="221.5" cy="429.8" rx="4.94" ry="7.58" transform="rotate(99.0 221.5 429.8)" fill="rgba(0,0,0,0.22)"></ellipse><ellipse cx="222.3" cy="431.0" rx="2.72" ry="4.17" transform="rotate(99.0 221.5 429.8)" fill="rgba(255,255,255,0.18)"></ellipse><ellipse cx="411.4" cy="166.5" rx="4.96" ry="7.59" transform="rotate(-27.4 411.4 166.5)" fill="rgba(0,0,0,0.34)"></ellipse><ellipse cx="412.2" cy="167.7" rx="2.73" ry="4.17" transform="rotate(-27.4 411.4 166.5)" fill="rgba(255,255,255,0.26)"></ellipse><ellipse cx="70.6" cy="271.8" rx="5.01" ry="7.61" transform="rotate(173.1 70.6 271.8)" fill="rgba(0,0,0,0.46)"></ellipse><ellipse cx="71.4" cy="273.0" rx="2.76" ry="4.19" transform="rotate(173.1 70.6 271.8)" fill="rgba(255,255,255,0.34)"></ellipse><ellipse cx="430.5" cy="249.2" rx="5.02" ry="7.62" transform="rotate(-0.2 430.5 249.2)" fill="rgba(0,0,0,0.23)"></ellipse><ellipse cx="431.3" cy="250.5" rx="2.76" ry="4.19" transform="rotate(-0.2 430.5 249.2)" fill="rgba(255,255,255,0.19)"></ellipse><ellipse cx="346.4" cy="103.3" rx="5.27" ry="7.72" transform="rotate(-56.7 346.4 103.3)" fill="rgba(0,0,0,0.46)"></ellipse><ellipse cx="347.2" cy="104.6" rx="2.90" ry="4.25" transform="rotate(-56.7 346.4 103.3)" fill="rgba(255,255,255,0.34)"></ellipse><ellipse cx="136.6" cy="118.3" rx="5.35" ry="7.76" transform="rotate(-130.7 136.6 118.3)" fill="rgba(0,0,0,0.60)"></ellipse><ellipse cx="137.4" cy="119.7" rx="2.94" ry="4.27" transform="rotate(-130.7 136.6 118.3)" fill="rgba(255,255,255,0.42)"></ellipse><ellipse cx="380.1" cy="134.9" rx="5.35" ry="7.76" transform="rotate(-41.5 380.1 134.9)" fill="rgba(0,0,0,0.40)"></ellipse><ellipse cx="381.0" cy="136.2" rx="2.94" ry="4.27" transform="rotate(-41.5 380.1 134.9)" fill="rgba(255,255,255,0.30)"></ellipse><ellipse cx="221.8" cy="79.2" rx="5.38" ry="7.77" transform="rotate(-99.4 221.8 79.2)" fill="rgba(0,0,0,0.58)"></ellipse><ellipse cx="222.7" cy="80.5" rx="2.96" ry="4.27" transform="rotate(-99.4 221.8 79.2)" fill="rgba(255,255,255,0.41)"></ellipse><ellipse cx="387.7" cy="351.6" rx="5.48" ry="7.81" transform="rotate(36.4 387.7 351.6)" fill="rgba(0,0,0,0.22)"></ellipse><ellipse cx="388.6" cy="352.9" rx="3.01" ry="4.29" transform="rotate(36.4 387.7 351.6)" fill="rgba(255,255,255,0.18)"></ellipse><ellipse cx="413.1" cy="300.4" rx="5.50" ry="7.82" transform="rotate(17.2 413.1 300.4)" fill="rgba(0,0,0,0.22)"></ellipse><ellipse cx="413.9" cy="301.8" rx="3.02" ry="4.30" transform="rotate(17.2 413.1 300.4)" fill="rgba(255,255,255,0.18)"></ellipse><ellipse cx="84.9" cy="220.7" rx="5.63" ry="7.87" transform="rotate(-169.9 84.9 220.7)" fill="rgba(0,0,0,0.52)"></ellipse><ellipse cx="85.8" cy="222.0" rx="3.10" ry="4.33" transform="rotate(-169.9 84.9 220.7)" fill="rgba(255,255,255,0.38)"></ellipse><ellipse cx="180.1" cy="98.8" rx="5.68" ry="7.89" transform="rotate(-114.8 180.1 98.8)" fill="rgba(0,0,0,0.59)"></ellipse><ellipse cx="181.0" cy="100.2" rx="3.12" ry="4.34" transform="rotate(-114.8 180.1 98.8)" fill="rgba(255,255,255,0.42)"></ellipse><ellipse cx="107.2" cy="169.5" rx="5.80" ry="7.94" transform="rotate(-150.6 107.2 169.5)" fill="rgba(0,0,0,0.57)"></ellipse><ellipse cx="108.2" cy="170.9" rx="3.19" ry="4.37" transform="rotate(-150.6 107.2 169.5)" fill="rgba(255,255,255,0.41)"></ellipse><ellipse cx="96.6" cy="303.4" rx="5.86" ry="7.96" transform="rotate(160.8 96.6 303.4)" fill="rgba(0,0,0,0.43)"></ellipse><ellipse cx="97.5" cy="304.9" rx="3.22" ry="4.38" transform="rotate(160.8 96.6 303.4)" fill="rgba(255,255,255,0.31)"></ellipse><ellipse cx="282.6" cy="91.3" rx="5.88" ry="7.97" transform="rotate(-78.4 282.6 91.3)" fill="rgba(0,0,0,0.53)"></ellipse><ellipse cx="283.6" cy="92.7" rx="3.23" ry="4.38" transform="rotate(-78.4 282.6 91.3)" fill="rgba(255,255,255,0.38)"></ellipse><ellipse cx="256.5" cy="410.3" rx="5.95" ry="8.00" transform="rotate(87.7 256.5 410.3)" fill="rgba(0,0,0,0.22)"></ellipse><ellipse cx="257.5" cy="411.7" rx="3.27" ry="4.40" transform="rotate(87.7 256.5 410.3)" fill="rgba(255,255,255,0.18)"></ellipse><ellipse cx="406.3" cy="217.6" rx="5.98" ry="8.01" transform="rotate(-11.7 406.3 217.6)" fill="rgba(0,0,0,0.30)"></ellipse><ellipse cx="407.3" cy="219.1" rx="3.29" ry="4.40" transform="rotate(-11.7 406.3 217.6)" fill="rgba(255,255,255,0.23)"></ellipse><ellipse cx="191.8" cy="398.2" rx="6.00" ry="8.01" transform="rotate(111.5 191.8 398.2)" fill="rgba(0,0,0,0.25)"></ellipse><ellipse cx="192.7" cy="399.7" rx="3.30" ry="4.41" transform="rotate(111.5 191.8 398.2)" fill="rgba(255,255,255,0.20)"></ellipse><ellipse cx="343.7" cy="371.1" rx="6.24" ry="8.11" transform="rotate(52.3 343.7 371.1)" fill="rgba(0,0,0,0.22)"></ellipse><ellipse cx="344.7" cy="372.7" rx="3.43" ry="4.46" transform="rotate(52.3 343.7 371.1)" fill="rgba(255,255,255,0.18)"></ellipse><ellipse cx="126.8" cy="335.0" rx="6.37" ry="8.16" transform="rotate(145.4 126.8 335.0)" fill="rgba(0,0,0,0.38)"></ellipse><ellipse cx="127.8" cy="336.6" rx="3.51" ry="4.49" transform="rotate(145.4 126.8 335.0)" fill="rgba(255,255,255,0.28)"></ellipse><ellipse cx="298.6" cy="390.7" rx="6.41" ry="8.17" transform="rotate(70.9 298.6 390.7)" fill="rgba(0,0,0,0.22)"></ellipse><ellipse cx="299.7" cy="392.3" rx="3.52" ry="4.49" transform="rotate(70.9 298.6 390.7)" fill="rgba(255,255,255,0.18)"></ellipse><ellipse cx="159.2" cy="366.6" rx="6.45" ry="8.18" transform="rotate(127.9 159.2 366.6)" fill="rgba(0,0,0,0.32)"></ellipse><ellipse cx="160.3" cy="368.2" rx="3.55" ry="4.50" transform="rotate(127.9 159.2 366.6)" fill="rgba(255,255,255,0.25)"></ellipse><ellipse cx="391.8" cy="268.8" rx="6.62" ry="8.24" transform="rotate(7.6 391.8 268.8)" fill="rgba(0,0,0,0.27)"></ellipse><ellipse cx="392.9" cy="270.4" rx="3.64" ry="4.53" transform="rotate(7.6 391.8 268.8)" fill="rgba(255,255,255,0.21)"></ellipse><ellipse cx="377.4" cy="186.1" rx="6.64" ry="8.25" transform="rotate(-26.6 377.4 186.1)" fill="rgba(0,0,0,0.37)"></ellipse><ellipse cx="378.5" cy="187.7" rx="3.65" ry="4.54" transform="rotate(-26.6 377.4 186.1)" fill="rgba(255,255,255,0.28)"></ellipse><ellipse cx="313.3" cy="122.9" rx="6.66" ry="8.26" transform="rotate(-63.5 313.3 122.9)" fill="rgba(0,0,0,0.49)"></ellipse><ellipse cx="314.3" cy="124.5" rx="3.66" ry="4.54" transform="rotate(-63.5 313.3 122.9)" fill="rgba(255,255,255,0.35)"></ellipse><ellipse cx="108.2" cy="252.3" rx="6.66" ry="8.26" transform="rotate(179.1 108.2 252.3)" fill="rgba(0,0,0,0.49)"></ellipse><ellipse cx="109.2" cy="253.9" rx="3.66" ry="4.54" transform="rotate(179.1 108.2 252.3)" fill="rgba(255,255,255,0.36)"></ellipse><ellipse cx="151.8" cy="149.9" rx="6.72" ry="8.28" transform="rotate(-134.5 151.8 149.9)" fill="rgba(0,0,0,0.58)"></ellipse><ellipse cx="152.9" cy="151.6" rx="3.70" ry="4.55" transform="rotate(-134.5 151.8 149.9)" fill="rgba(255,255,255,0.41)"></ellipse><ellipse cx="243.3" cy="110.8" rx="6.75" ry="8.29" transform="rotate(-92.7 243.3 110.8)" fill="rgba(0,0,0,0.55)"></ellipse><ellipse cx="244.4" cy="112.5" rx="3.71" ry="4.56" transform="rotate(-92.7 243.3 110.8)" fill="rgba(255,255,255,0.40)"></ellipse><ellipse cx="370.4" cy="320.0" rx="6.75" ry="8.29" transform="rotate(30.2 370.4 320.0)" fill="rgba(0,0,0,0.23)"></ellipse><ellipse cx="371.4" cy="321.6" rx="3.71" ry="4.56" transform="rotate(30.2 370.4 320.0)" fill="rgba(255,255,255,0.18)"></ellipse><ellipse cx="345.7" cy="154.5" rx="6.89" ry="8.34" transform="rotate(-45.0 345.7 154.5)" fill="rgba(0,0,0,0.43)"></ellipse><ellipse cx="346.8" cy="156.1" rx="3.79" ry="4.59" transform="rotate(-45.0 345.7 154.5)" fill="rgba(255,255,255,0.32)"></ellipse><ellipse cx="127.3" cy="201.1" rx="6.99" ry="8.37" transform="rotate(-158.3 127.3 201.1)" fill="rgba(0,0,0,0.54)"></ellipse><ellipse cx="128.4" cy="202.8" rx="3.84" ry="4.61" transform="rotate(-158.3 127.3 201.1)" fill="rgba(255,255,255,0.39)"></ellipse><ellipse cx="198.4" cy="130.4" rx="7.05" ry="8.39" transform="rotate(-113.3 198.4 130.4)" fill="rgba(0,0,0,0.57)"></ellipse><ellipse cx="199.5" cy="132.1" rx="3.88" ry="4.62" transform="rotate(-113.3 198.4 130.4)" fill="rgba(255,255,255,0.41)"></ellipse><ellipse cx="230.3" cy="378.7" rx="7.05" ry="8.39" transform="rotate(98.7 230.3 378.7)" fill="rgba(0,0,0,0.27)"></ellipse><ellipse cx="231.4" cy="380.4" rx="3.88" ry="4.62" transform="rotate(98.7 230.3 378.7)" fill="rgba(255,255,255,0.21)"></ellipse><ellipse cx="136.4" cy="283.9" rx="7.40" ry="8.51" transform="rotate(163.4 136.4 283.9)" fill="rgba(0,0,0,0.45)"></ellipse><ellipse cx="137.6" cy="285.7" rx="4.07" ry="4.68" transform="rotate(163.4 136.4 283.9)" fill="rgba(255,255,255,0.33)"></ellipse><ellipse cx="365.1" cy="237.2" rx="7.48" ry="8.54" transform="rotate(-6.3 365.1 237.2)" fill="rgba(0,0,0,0.34)"></ellipse><ellipse cx="366.3" cy="239.0" rx="4.11" ry="4.69" transform="rotate(-6.3 365.1 237.2)" fill="rgba(255,255,255,0.26)"></ellipse><ellipse cx="323.3" cy="339.5" rx="7.48" ry="8.54" transform="rotate(50.7 323.3 339.5)" fill="rgba(0,0,0,0.25)"></ellipse><ellipse cx="324.5" cy="341.4" rx="4.11" ry="4.69" transform="rotate(50.7 323.3 339.5)" fill="rgba(255,255,255,0.20)"></ellipse><ellipse cx="275.4" cy="359.1" rx="7.58" ry="8.57" transform="rotate(76.9 275.4 359.1)" fill="rgba(0,0,0,0.27)"></ellipse><ellipse cx="276.6" cy="361.0" rx="4.17" ry="4.71" transform="rotate(76.9 275.4 359.1)" fill="rgba(255,255,255,0.21)"></ellipse><ellipse cx="271.3" cy="142.4" rx="7.64" ry="8.59" transform="rotate(-78.8 271.3 142.4)" fill="rgba(0,0,0,0.51)"></ellipse><ellipse cx="272.5" cy="144.3" rx="4.20" ry="4.72" transform="rotate(-78.8 271.3 142.4)" fill="rgba(255,255,255,0.37)"></ellipse><ellipse cx="199.7" cy="347.1" rx="7.65" ry="8.59" transform="rotate(117.4 199.7 347.1)" fill="rgba(0,0,0,0.34)"></ellipse><ellipse cx="200.9" cy="348.9" rx="4.21" ry="4.73" transform="rotate(117.4 199.7 347.1)" fill="rgba(255,255,255,0.26)"></ellipse><ellipse cx="167.6" cy="315.5" rx="7.75" ry="8.62" transform="rotate(141.5 167.6 315.5)" fill="rgba(0,0,0,0.40)"></ellipse><ellipse cx="168.8" cy="317.4" rx="4.26" ry="4.74" transform="rotate(141.5 167.6 315.5)" fill="rgba(255,255,255,0.29)"></ellipse><ellipse cx="346.2" cy="288.4" rx="7.79" ry="8.64" transform="rotate(21.7 346.2 288.4)" fill="rgba(0,0,0,0.30)"></ellipse><ellipse cx="347.4" cy="290.3" rx="4.28" ry="4.75" transform="rotate(21.7 346.2 288.4)" fill="rgba(255,255,255,0.23)"></ellipse><ellipse cx="174.8" cy="181.5" rx="7.84" ry="8.65" transform="rotate(-137.7 174.8 181.5)" fill="rgba(0,0,0,0.54)"></ellipse><ellipse cx="176.0" cy="183.5" rx="4.31" ry="4.76" transform="rotate(-137.7 174.8 181.5)" fill="rgba(255,255,255,0.39)"></ellipse><ellipse cx="153.3" cy="232.7" rx="7.92" ry="8.68" transform="rotate(-169.9 153.3 232.7)" fill="rgba(0,0,0,0.50)"></ellipse><ellipse cx="154.5" cy="234.6" rx="4.35" ry="4.77" transform="rotate(-169.9 153.3 232.7)" fill="rgba(255,255,255,0.36)"></ellipse><ellipse cx="334.6" cy="205.6" rx="7.98" ry="8.69" transform="rotate(-27.7 334.6 205.6)" fill="rgba(0,0,0,0.40)"></ellipse><ellipse cx="335.9" cy="207.6" rx="4.39" ry="4.78" transform="rotate(-27.7 334.6 205.6)" fill="rgba(255,255,255,0.30)"></ellipse><ellipse cx="302.6" cy="174.0" rx="8.04" ry="8.72" transform="rotate(-55.3 302.6 174.0)" fill="rgba(0,0,0,0.46)"></ellipse><ellipse cx="303.9" cy="176.0" rx="4.42" ry="4.79" transform="rotate(-55.3 302.6 174.0)" fill="rgba(255,255,255,0.34)"></ellipse><ellipse cx="224.0" cy="162.0" rx="8.06" ry="8.72" transform="rotate(-106.5 224.0 162.0)" fill="rgba(0,0,0,0.53)"></ellipse><ellipse cx="225.3" cy="164.0" rx="4.43" ry="4.80" transform="rotate(-106.5 224.0 162.0)" fill="rgba(255,255,255,0.38)"></ellipse><ellipse cx="246.7" cy="327.5" rx="8.33" ry="8.80" transform="rotate(92.5 246.7 327.5)" fill="rgba(0,0,0,0.34)"></ellipse><ellipse cx="248.0" cy="329.5" rx="4.58" ry="4.84" transform="rotate(92.5 246.7 327.5)" fill="rgba(255,255,255,0.26)"></ellipse><ellipse cx="296.7" cy="307.9" rx="8.39" ry="8.82" transform="rotate(51.1 296.7 307.9)" fill="rgba(0,0,0,0.32)"></ellipse><ellipse cx="298.0" cy="310.0" rx="4.61" ry="4.85" transform="rotate(51.1 296.7 307.9)" fill="rgba(255,255,255,0.25)"></ellipse><ellipse cx="183.3" cy="264.3" rx="8.48" ry="8.85" transform="rotate(167.9 183.3 264.3)" fill="rgba(0,0,0,0.46)"></ellipse><ellipse cx="184.6" cy="266.4" rx="4.67" ry="4.87" transform="rotate(167.9 183.3 264.3)" fill="rgba(255,255,255,0.33)"></ellipse><ellipse cx="317.3" cy="256.8" rx="8.49" ry="8.85" transform="rotate(5.7 317.3 256.8)" fill="rgba(0,0,0,0.37)"></ellipse><ellipse cx="318.7" cy="258.9" rx="4.67" ry="4.87" transform="rotate(5.7 317.3 256.8)" fill="rgba(255,255,255,0.28)"></ellipse><ellipse cx="203.0" cy="213.1" rx="8.61" ry="8.89" transform="rotate(-141.9 203.0 213.1)" fill="rgba(0,0,0,0.50)"></ellipse><ellipse cx="204.4" cy="215.2" rx="4.73" ry="4.89" transform="rotate(-141.9 203.0 213.1)" fill="rgba(255,255,255,0.36)"></ellipse><ellipse cx="215.2" cy="295.9" rx="8.63" ry="8.89" transform="rotate(127.2 215.2 295.9)" fill="rgba(0,0,0,0.40)"></ellipse><ellipse cx="216.5" cy="298.0" rx="4.75" ry="4.89" transform="rotate(127.2 215.2 295.9)" fill="rgba(255,255,255,0.30)"></ellipse><ellipse cx="254.0" cy="193.6" rx="8.65" ry="8.90" transform="rotate(-86.0 254.0 193.6)" fill="rgba(0,0,0,0.49)"></ellipse><ellipse cx="255.3" cy="195.7" rx="4.76" ry="4.89" transform="rotate(-86.0 254.0 193.6)" fill="rgba(255,255,255,0.35)"></ellipse><ellipse cx="285.8" cy="225.2" rx="8.79" ry="8.94" transform="rotate(-34.7 285.8 225.2)" fill="rgba(0,0,0,0.43)"></ellipse><ellipse cx="287.2" cy="227.3" rx="4.84" ry="4.92" transform="rotate(-34.7 285.8 225.2)" fill="rgba(255,255,255,0.32)"></ellipse><ellipse cx="266.2" cy="276.3" rx="8.90" ry="8.97" transform="rotate(58.4 266.2 276.3)" fill="rgba(0,0,0,0.39)"></ellipse><ellipse cx="267.6" cy="278.5" rx="4.89" ry="4.93" transform="rotate(58.4 266.2 276.3)" fill="rgba(255,255,255,0.29)"></ellipse><ellipse cx="234.2" cy="244.7" rx="8.97" ry="8.99" transform="rotate(-161.5 234.2 244.7)" fill="rgba(0,0,0,0.45)"></ellipse><ellipse cx="235.7" cy="246.9" rx="4.93" ry="4.95" transform="rotate(-161.5 234.2 244.7)" fill="rgba(255,255,255,0.33)"></ellipse></g>
  
  <circle cx="250" cy="250" r="240" fill="url(#brim)"></circle>
  
  <ellipse cx="170" cy="140" rx="60" ry="44" fill="url(#bspec)" transform="rotate(-20 170 140)"></ellipse>
  
  <circle cx="148" cy="120" r="10" fill="rgba(255,255,255,0.95)"></circle>
  
  <g font-family="Inter, system-ui, sans-serif" fill="rgba(35,30,18,0.55)" text-anchor="middle">
    <path id="dArc" d="M 130 280 A 120 120 0 0 0 370 280" fill="none"></path>
    <text font-size="14" font-weight="700" letter-spacing="3">
      <textPath href="#dArc" startOffset="50%">TITLEIST · PRO V1x</textPath>
    </text>
  </g>
  <text x="250" y="320" font-family="Inter, sans-serif" font-size="22" font-weight="700" fill="rgba(35,30,18,0.5)" text-anchor="middle" letter-spacing="2">03</text>
  
  <circle cx="245" cy="335" r="3" fill="rgba(35,30,18,0.55)"></circle>
  <circle cx="255" cy="335" r="3" fill="rgba(35,30,18,0.55)"></circle>
</svg>